<mxfile host="Electron" modified="2024-01-12T08:21:06.926Z" agent="Mozilla/5.0 (Macintosh; Intel Mac OS X 10_15_7) AppleWebKit/537.36 (KHTML, like Gecko) draw.io/22.1.18 Chrome/120.0.6099.199 Electron/28.1.2 Safari/537.36" etag="4kPZvGPevZH4DJHYX5qU" version="22.1.18" type="device">
  <diagram name="Seite-1" id="5yZLBT5A5RAoVS_Xg-lV">
    <mxGraphModel dx="1195" dy="646" grid="1" gridSize="10" guides="1" tooltips="1" connect="1" arrows="1" fold="1" page="1" pageScale="1" pageWidth="827" pageHeight="1169" math="0" shadow="0">
      <root>
        <mxCell id="0" />
        <mxCell id="1" parent="0" />
        <mxCell id="WUrqiauPszfEcTlT8KK8-7" value="" style="rounded=0;whiteSpace=wrap;html=1;" parent="1" vertex="1">
          <mxGeometry x="282" y="310" width="190" height="130" as="geometry" />
        </mxCell>
        <mxCell id="HkP_gd-xjNYq4AOfFM9T-7" style="edgeStyle=orthogonalEdgeStyle;rounded=0;orthogonalLoop=1;jettySize=auto;html=1;" parent="1" source="HkP_gd-xjNYq4AOfFM9T-1" target="HkP_gd-xjNYq4AOfFM9T-5" edge="1">
          <mxGeometry relative="1" as="geometry" />
        </mxCell>
        <mxCell id="HkP_gd-xjNYq4AOfFM9T-8" style="edgeStyle=orthogonalEdgeStyle;rounded=0;orthogonalLoop=1;jettySize=auto;html=1;" parent="1" source="HkP_gd-xjNYq4AOfFM9T-1" target="HkP_gd-xjNYq4AOfFM9T-2" edge="1">
          <mxGeometry relative="1" as="geometry" />
        </mxCell>
        <mxCell id="HkP_gd-xjNYq4AOfFM9T-9" value="n" style="edgeLabel;html=1;align=center;verticalAlign=middle;resizable=0;points=[];" parent="HkP_gd-xjNYq4AOfFM9T-8" vertex="1" connectable="0">
          <mxGeometry x="-0.5455" relative="1" as="geometry">
            <mxPoint as="offset" />
          </mxGeometry>
        </mxCell>
        <mxCell id="b0rjAcDf9z5aJyuMgeFr-4" style="edgeStyle=orthogonalEdgeStyle;rounded=0;orthogonalLoop=1;jettySize=auto;html=1;" edge="1" parent="1" source="HkP_gd-xjNYq4AOfFM9T-1" target="HkP_gd-xjNYq4AOfFM9T-10">
          <mxGeometry relative="1" as="geometry" />
        </mxCell>
        <mxCell id="b0rjAcDf9z5aJyuMgeFr-5" value="&amp;nbsp;n&amp;nbsp;" style="edgeLabel;html=1;align=center;verticalAlign=middle;resizable=0;points=[];" vertex="1" connectable="0" parent="b0rjAcDf9z5aJyuMgeFr-4">
          <mxGeometry x="-0.0011" relative="1" as="geometry">
            <mxPoint as="offset" />
          </mxGeometry>
        </mxCell>
        <mxCell id="HkP_gd-xjNYq4AOfFM9T-1" value="MI" style="rounded=0;whiteSpace=wrap;html=1;strokeWidth=3;" parent="1" vertex="1">
          <mxGeometry x="240" y="120" width="50" height="30" as="geometry" />
        </mxCell>
        <mxCell id="HkP_gd-xjNYq4AOfFM9T-2" value="&quot;mental imagery&quot;" style="rounded=0;whiteSpace=wrap;html=1;" parent="1" vertex="1">
          <mxGeometry x="100" y="80" width="110" height="30" as="geometry" />
        </mxCell>
        <mxCell id="HkP_gd-xjNYq4AOfFM9T-5" value="&quot;mental simulation&quot;" style="rounded=0;whiteSpace=wrap;html=1;" parent="1" vertex="1">
          <mxGeometry x="100" y="160" width="110" height="30" as="geometry" />
        </mxCell>
        <mxCell id="HkP_gd-xjNYq4AOfFM9T-10" value="&quot;representations and the accompanying experience of sensory information without a direct external stimulus&quot; (Pearson et al. 2015, p. 590)" style="rounded=0;whiteSpace=wrap;html=1;" parent="1" vertex="1">
          <mxGeometry x="350" y="110" width="280" height="50" as="geometry" />
        </mxCell>
        <mxCell id="HkP_gd-xjNYq4AOfFM9T-13" style="edgeStyle=orthogonalEdgeStyle;rounded=0;orthogonalLoop=1;jettySize=auto;html=1;" parent="1" source="HkP_gd-xjNYq4AOfFM9T-11" target="HkP_gd-xjNYq4AOfFM9T-12" edge="1">
          <mxGeometry relative="1" as="geometry" />
        </mxCell>
        <mxCell id="HkP_gd-xjNYq4AOfFM9T-14" value="n" style="edgeLabel;html=1;align=center;verticalAlign=middle;resizable=0;points=[];" parent="HkP_gd-xjNYq4AOfFM9T-13" vertex="1" connectable="0">
          <mxGeometry x="0.0333" relative="1" as="geometry">
            <mxPoint as="offset" />
          </mxGeometry>
        </mxCell>
        <mxCell id="HkP_gd-xjNYq4AOfFM9T-16" style="edgeStyle=orthogonalEdgeStyle;rounded=0;orthogonalLoop=1;jettySize=auto;html=1;" parent="1" source="HkP_gd-xjNYq4AOfFM9T-11" target="HkP_gd-xjNYq4AOfFM9T-15" edge="1">
          <mxGeometry relative="1" as="geometry" />
        </mxCell>
        <mxCell id="HkP_gd-xjNYq4AOfFM9T-17" value="n" style="edgeLabel;html=1;align=center;verticalAlign=middle;resizable=0;points=[];" parent="HkP_gd-xjNYq4AOfFM9T-16" vertex="1" connectable="0">
          <mxGeometry x="-0.05" y="-1" relative="1" as="geometry">
            <mxPoint as="offset" />
          </mxGeometry>
        </mxCell>
        <mxCell id="HkP_gd-xjNYq4AOfFM9T-11" value="IIC" style="rounded=0;whiteSpace=wrap;html=1;strokeWidth=3;" parent="1" vertex="1">
          <mxGeometry x="250" y="240" width="50" height="30" as="geometry" />
        </mxCell>
        <mxCell id="HkP_gd-xjNYq4AOfFM9T-12" value="“the mental simulation of a social interaction with a member or members of an outgroup category” (Crisp &amp;amp; Turner, 2009, p. 234)" style="rounded=0;whiteSpace=wrap;html=1;" parent="1" vertex="1">
          <mxGeometry x="360" y="220" width="210" height="70" as="geometry" />
        </mxCell>
        <mxCell id="HkP_gd-xjNYq4AOfFM9T-15" value="&quot;imagined intergroup contact&quot;" style="rounded=0;whiteSpace=wrap;html=1;" parent="1" vertex="1">
          <mxGeometry x="90" y="240" width="110" height="30" as="geometry" />
        </mxCell>
        <mxCell id="HkP_gd-xjNYq4AOfFM9T-21" value="" style="ellipse;whiteSpace=wrap;html=1;" parent="1" vertex="1">
          <mxGeometry x="1050" y="350" width="250" height="180" as="geometry" />
        </mxCell>
        <mxCell id="HkP_gd-xjNYq4AOfFM9T-22" value="" style="ellipse;whiteSpace=wrap;html=1;fillColor=none;" parent="1" vertex="1">
          <mxGeometry x="1070" y="380" width="140" height="120" as="geometry" />
        </mxCell>
        <mxCell id="HkP_gd-xjNYq4AOfFM9T-23" value="" style="ellipse;whiteSpace=wrap;html=1;fillColor=none;" parent="1" vertex="1">
          <mxGeometry x="1134" y="390" width="140" height="120" as="geometry" />
        </mxCell>
        <mxCell id="HkP_gd-xjNYq4AOfFM9T-24" value="MI" style="text;html=1;strokeColor=none;fillColor=none;align=center;verticalAlign=middle;whiteSpace=wrap;rounded=0;" parent="1" vertex="1">
          <mxGeometry x="1145" y="350" width="60" height="30" as="geometry" />
        </mxCell>
        <mxCell id="HkP_gd-xjNYq4AOfFM9T-25" value="MI of social interaction" style="text;html=1;strokeColor=none;fillColor=none;align=center;verticalAlign=middle;whiteSpace=wrap;rounded=0;" parent="1" vertex="1">
          <mxGeometry x="1214" y="435" width="60" height="30" as="geometry" />
        </mxCell>
        <mxCell id="HkP_gd-xjNYq4AOfFM9T-26" value="MI of outgroups" style="text;html=1;strokeColor=none;fillColor=none;align=center;verticalAlign=middle;whiteSpace=wrap;rounded=0;" parent="1" vertex="1">
          <mxGeometry x="1070" y="420" width="64" height="30" as="geometry" />
        </mxCell>
        <mxCell id="HkP_gd-xjNYq4AOfFM9T-27" value="IIC" style="text;html=1;strokeColor=none;fillColor=none;align=center;verticalAlign=middle;whiteSpace=wrap;rounded=0;" parent="1" vertex="1">
          <mxGeometry x="1145" y="425" width="60" height="30" as="geometry" />
        </mxCell>
        <mxCell id="HkP_gd-xjNYq4AOfFM9T-28" value="MI" style="rounded=0;whiteSpace=wrap;html=1;strokeWidth=3;" parent="1" vertex="1">
          <mxGeometry x="1249" y="595" width="91" height="30" as="geometry" />
        </mxCell>
        <mxCell id="HkP_gd-xjNYq4AOfFM9T-30" value="i" style="edgeStyle=orthogonalEdgeStyle;rounded=0;orthogonalLoop=1;jettySize=auto;html=1;" parent="1" source="HkP_gd-xjNYq4AOfFM9T-29" target="HkP_gd-xjNYq4AOfFM9T-28" edge="1">
          <mxGeometry relative="1" as="geometry" />
        </mxCell>
        <mxCell id="HkP_gd-xjNYq4AOfFM9T-33" style="edgeStyle=orthogonalEdgeStyle;rounded=0;orthogonalLoop=1;jettySize=auto;html=1;entryX=0;entryY=0.5;entryDx=0;entryDy=0;" parent="1" source="HkP_gd-xjNYq4AOfFM9T-29" target="HkP_gd-xjNYq4AOfFM9T-31" edge="1">
          <mxGeometry relative="1" as="geometry">
            <Array as="points">
              <mxPoint x="1170" y="655" />
            </Array>
          </mxGeometry>
        </mxCell>
        <mxCell id="HkP_gd-xjNYq4AOfFM9T-35" value="i" style="edgeLabel;html=1;align=center;verticalAlign=middle;resizable=0;points=[];" parent="HkP_gd-xjNYq4AOfFM9T-33" vertex="1" connectable="0">
          <mxGeometry x="0.4495" relative="1" as="geometry">
            <mxPoint as="offset" />
          </mxGeometry>
        </mxCell>
        <mxCell id="HkP_gd-xjNYq4AOfFM9T-34" style="edgeStyle=orthogonalEdgeStyle;rounded=0;orthogonalLoop=1;jettySize=auto;html=1;entryX=0;entryY=0.5;entryDx=0;entryDy=0;" parent="1" source="HkP_gd-xjNYq4AOfFM9T-29" target="HkP_gd-xjNYq4AOfFM9T-32" edge="1">
          <mxGeometry relative="1" as="geometry">
            <Array as="points">
              <mxPoint x="1160" y="705" />
            </Array>
          </mxGeometry>
        </mxCell>
        <mxCell id="HkP_gd-xjNYq4AOfFM9T-36" value="i" style="edgeLabel;html=1;align=center;verticalAlign=middle;resizable=0;points=[];" parent="HkP_gd-xjNYq4AOfFM9T-34" vertex="1" connectable="0">
          <mxGeometry x="0.6235" y="1" relative="1" as="geometry">
            <mxPoint as="offset" />
          </mxGeometry>
        </mxCell>
        <mxCell id="HkP_gd-xjNYq4AOfFM9T-29" value="IIC" style="rounded=0;whiteSpace=wrap;html=1;strokeWidth=3;" parent="1" vertex="1">
          <mxGeometry x="1134" y="595" width="50" height="30" as="geometry" />
        </mxCell>
        <mxCell id="HkP_gd-xjNYq4AOfFM9T-31" value="MI of social interaction" style="rounded=0;whiteSpace=wrap;html=1;strokeWidth=3;" parent="1" vertex="1">
          <mxGeometry x="1249" y="640" width="91" height="30" as="geometry" />
        </mxCell>
        <mxCell id="HkP_gd-xjNYq4AOfFM9T-32" value="MI of outgroup" style="rounded=0;whiteSpace=wrap;html=1;strokeWidth=3;" parent="1" vertex="1">
          <mxGeometry x="1250" y="690" width="90" height="30" as="geometry" />
        </mxCell>
        <mxCell id="HkP_gd-xjNYq4AOfFM9T-37" value="&lt;b&gt;&lt;font style=&quot;font-size: 14px;&quot;&gt;Version A&lt;/font&gt;&lt;/b&gt;" style="text;html=1;strokeColor=none;fillColor=none;align=center;verticalAlign=middle;whiteSpace=wrap;rounded=0;" parent="1" vertex="1">
          <mxGeometry x="950" y="630" width="90" height="30" as="geometry" />
        </mxCell>
        <mxCell id="HkP_gd-xjNYq4AOfFM9T-38" value="MI" style="rounded=0;whiteSpace=wrap;html=1;strokeWidth=3;" parent="1" vertex="1">
          <mxGeometry x="1310" y="845" width="91" height="30" as="geometry" />
        </mxCell>
        <mxCell id="HkP_gd-xjNYq4AOfFM9T-39" value="i" style="edgeStyle=orthogonalEdgeStyle;rounded=0;orthogonalLoop=1;jettySize=auto;html=1;entryX=0;entryY=0.5;entryDx=0;entryDy=0;" parent="1" source="HkP_gd-xjNYq4AOfFM9T-44" target="HkP_gd-xjNYq4AOfFM9T-45" edge="1">
          <mxGeometry relative="1" as="geometry" />
        </mxCell>
        <mxCell id="HkP_gd-xjNYq4AOfFM9T-40" style="edgeStyle=orthogonalEdgeStyle;rounded=0;orthogonalLoop=1;jettySize=auto;html=1;entryX=1;entryY=0.5;entryDx=0;entryDy=0;startArrow=classic;startFill=1;endArrow=none;endFill=0;exitX=0.5;exitY=0;exitDx=0;exitDy=0;" parent="1" source="HkP_gd-xjNYq4AOfFM9T-38" target="HkP_gd-xjNYq4AOfFM9T-45" edge="1">
          <mxGeometry relative="1" as="geometry" />
        </mxCell>
        <mxCell id="HkP_gd-xjNYq4AOfFM9T-41" value="i" style="edgeLabel;html=1;align=center;verticalAlign=middle;resizable=0;points=[];" parent="HkP_gd-xjNYq4AOfFM9T-40" vertex="1" connectable="0">
          <mxGeometry x="0.4495" relative="1" as="geometry">
            <mxPoint as="offset" />
          </mxGeometry>
        </mxCell>
        <mxCell id="HkP_gd-xjNYq4AOfFM9T-42" style="edgeStyle=orthogonalEdgeStyle;rounded=0;orthogonalLoop=1;jettySize=auto;html=1;entryX=1;entryY=0.5;entryDx=0;entryDy=0;startArrow=classic;startFill=1;endArrow=none;endFill=0;exitX=0.5;exitY=1;exitDx=0;exitDy=0;" parent="1" source="HkP_gd-xjNYq4AOfFM9T-38" target="HkP_gd-xjNYq4AOfFM9T-46" edge="1">
          <mxGeometry relative="1" as="geometry" />
        </mxCell>
        <mxCell id="HkP_gd-xjNYq4AOfFM9T-43" value="i" style="edgeLabel;html=1;align=center;verticalAlign=middle;resizable=0;points=[];" parent="HkP_gd-xjNYq4AOfFM9T-42" vertex="1" connectable="0">
          <mxGeometry x="0.6235" y="1" relative="1" as="geometry">
            <mxPoint as="offset" />
          </mxGeometry>
        </mxCell>
        <mxCell id="HkP_gd-xjNYq4AOfFM9T-48" style="edgeStyle=orthogonalEdgeStyle;rounded=0;orthogonalLoop=1;jettySize=auto;html=1;entryX=0;entryY=0.5;entryDx=0;entryDy=0;" parent="1" source="HkP_gd-xjNYq4AOfFM9T-44" target="HkP_gd-xjNYq4AOfFM9T-46" edge="1">
          <mxGeometry relative="1" as="geometry" />
        </mxCell>
        <mxCell id="HkP_gd-xjNYq4AOfFM9T-49" value="i" style="edgeLabel;html=1;align=center;verticalAlign=middle;resizable=0;points=[];" parent="HkP_gd-xjNYq4AOfFM9T-48" vertex="1" connectable="0">
          <mxGeometry x="0.1386" relative="1" as="geometry">
            <mxPoint y="1" as="offset" />
          </mxGeometry>
        </mxCell>
        <mxCell id="HkP_gd-xjNYq4AOfFM9T-44" value="IIC" style="rounded=0;whiteSpace=wrap;html=1;strokeWidth=3;" parent="1" vertex="1">
          <mxGeometry x="1100" y="840" width="50" height="30" as="geometry" />
        </mxCell>
        <mxCell id="HkP_gd-xjNYq4AOfFM9T-45" value="MI of social interaction" style="rounded=0;whiteSpace=wrap;html=1;strokeWidth=3;" parent="1" vertex="1">
          <mxGeometry x="1201" y="800" width="91" height="30" as="geometry" />
        </mxCell>
        <mxCell id="HkP_gd-xjNYq4AOfFM9T-46" value="MI of outgroup" style="rounded=0;whiteSpace=wrap;html=1;strokeWidth=3;" parent="1" vertex="1">
          <mxGeometry x="1201" y="890" width="90" height="30" as="geometry" />
        </mxCell>
        <mxCell id="HkP_gd-xjNYq4AOfFM9T-47" value="&lt;b&gt;&lt;font style=&quot;font-size: 14px;&quot;&gt;Version B&lt;/font&gt;&lt;/b&gt;" style="text;html=1;strokeColor=none;fillColor=none;align=center;verticalAlign=middle;whiteSpace=wrap;rounded=0;" parent="1" vertex="1">
          <mxGeometry x="950" y="855" width="90" height="30" as="geometry" />
        </mxCell>
        <mxCell id="HkP_gd-xjNYq4AOfFM9T-50" value="MI" style="rounded=0;whiteSpace=wrap;html=1;strokeWidth=3;" parent="1" vertex="1">
          <mxGeometry x="1079.5" y="1040" width="91" height="30" as="geometry" />
        </mxCell>
        <mxCell id="HkP_gd-xjNYq4AOfFM9T-58" value="IIC" style="rounded=0;whiteSpace=wrap;html=1;strokeWidth=3;" parent="1" vertex="1">
          <mxGeometry x="1450" y="1042.5" width="50" height="30" as="geometry" />
        </mxCell>
        <mxCell id="HkP_gd-xjNYq4AOfFM9T-62" style="edgeStyle=orthogonalEdgeStyle;rounded=0;orthogonalLoop=1;jettySize=auto;html=1;entryX=0.5;entryY=0;entryDx=0;entryDy=0;" parent="1" source="HkP_gd-xjNYq4AOfFM9T-59" target="HkP_gd-xjNYq4AOfFM9T-50" edge="1">
          <mxGeometry relative="1" as="geometry" />
        </mxCell>
        <mxCell id="HkP_gd-xjNYq4AOfFM9T-63" value="i" style="edgeLabel;html=1;align=center;verticalAlign=middle;resizable=0;points=[];" parent="HkP_gd-xjNYq4AOfFM9T-62" vertex="1" connectable="0">
          <mxGeometry x="-0.1574" relative="1" as="geometry">
            <mxPoint as="offset" />
          </mxGeometry>
        </mxCell>
        <mxCell id="HkP_gd-xjNYq4AOfFM9T-67" style="edgeStyle=orthogonalEdgeStyle;rounded=0;orthogonalLoop=1;jettySize=auto;html=1;entryX=0.5;entryY=0;entryDx=0;entryDy=0;" parent="1" source="HkP_gd-xjNYq4AOfFM9T-59" target="HkP_gd-xjNYq4AOfFM9T-66" edge="1">
          <mxGeometry relative="1" as="geometry" />
        </mxCell>
        <mxCell id="HkP_gd-xjNYq4AOfFM9T-59" value="MI of social interaction" style="rounded=0;whiteSpace=wrap;html=1;strokeWidth=3;" parent="1" vertex="1">
          <mxGeometry x="1205" y="990" width="91" height="30" as="geometry" />
        </mxCell>
        <mxCell id="HkP_gd-xjNYq4AOfFM9T-64" style="edgeStyle=orthogonalEdgeStyle;rounded=0;orthogonalLoop=1;jettySize=auto;html=1;entryX=0.5;entryY=1;entryDx=0;entryDy=0;" parent="1" source="HkP_gd-xjNYq4AOfFM9T-60" target="HkP_gd-xjNYq4AOfFM9T-50" edge="1">
          <mxGeometry relative="1" as="geometry" />
        </mxCell>
        <mxCell id="HkP_gd-xjNYq4AOfFM9T-65" value="i" style="edgeLabel;html=1;align=center;verticalAlign=middle;resizable=0;points=[];" parent="HkP_gd-xjNYq4AOfFM9T-64" vertex="1" connectable="0">
          <mxGeometry x="-0.4874" y="2" relative="1" as="geometry">
            <mxPoint x="1" as="offset" />
          </mxGeometry>
        </mxCell>
        <mxCell id="HkP_gd-xjNYq4AOfFM9T-68" style="edgeStyle=orthogonalEdgeStyle;rounded=0;orthogonalLoop=1;jettySize=auto;html=1;entryX=0.5;entryY=1;entryDx=0;entryDy=0;" parent="1" source="HkP_gd-xjNYq4AOfFM9T-60" target="HkP_gd-xjNYq4AOfFM9T-66" edge="1">
          <mxGeometry relative="1" as="geometry" />
        </mxCell>
        <mxCell id="HkP_gd-xjNYq4AOfFM9T-60" value="MI of outgroup" style="rounded=0;whiteSpace=wrap;html=1;strokeWidth=3;" parent="1" vertex="1">
          <mxGeometry x="1205" y="1090" width="90" height="30" as="geometry" />
        </mxCell>
        <mxCell id="HkP_gd-xjNYq4AOfFM9T-61" value="&lt;b&gt;&lt;font style=&quot;font-size: 14px;&quot;&gt;Version C&lt;/font&gt;&lt;/b&gt;" style="text;html=1;strokeColor=none;fillColor=none;align=center;verticalAlign=middle;whiteSpace=wrap;rounded=0;" parent="1" vertex="1">
          <mxGeometry x="950" y="1055" width="90" height="30" as="geometry" />
        </mxCell>
        <mxCell id="HkP_gd-xjNYq4AOfFM9T-70" style="edgeStyle=orthogonalEdgeStyle;rounded=0;orthogonalLoop=1;jettySize=auto;html=1;entryX=0;entryY=0.5;entryDx=0;entryDy=0;" parent="1" source="HkP_gd-xjNYq4AOfFM9T-66" target="HkP_gd-xjNYq4AOfFM9T-58" edge="1">
          <mxGeometry relative="1" as="geometry" />
        </mxCell>
        <mxCell id="HkP_gd-xjNYq4AOfFM9T-71" value="i" style="edgeLabel;html=1;align=center;verticalAlign=middle;resizable=0;points=[];" parent="HkP_gd-xjNYq4AOfFM9T-70" vertex="1" connectable="0">
          <mxGeometry x="-0.1385" y="1" relative="1" as="geometry">
            <mxPoint y="1" as="offset" />
          </mxGeometry>
        </mxCell>
        <mxCell id="HkP_gd-xjNYq4AOfFM9T-66" value="AND" style="rhombus;whiteSpace=wrap;html=1;" parent="1" vertex="1">
          <mxGeometry x="1326" y="1030" width="59" height="55" as="geometry" />
        </mxCell>
        <mxCell id="WUrqiauPszfEcTlT8KK8-2" style="edgeStyle=orthogonalEdgeStyle;rounded=0;orthogonalLoop=1;jettySize=auto;html=1;entryX=0;entryY=0.5;entryDx=0;entryDy=0;startArrow=classic;startFill=1;" parent="1" source="WUrqiauPszfEcTlT8KK8-4" target="WUrqiauPszfEcTlT8KK8-7" edge="1">
          <mxGeometry relative="1" as="geometry" />
        </mxCell>
        <mxCell id="WUrqiauPszfEcTlT8KK8-3" value="i" style="edgeLabel;html=1;align=center;verticalAlign=middle;resizable=0;points=[];" parent="WUrqiauPszfEcTlT8KK8-2" vertex="1" connectable="0">
          <mxGeometry x="0.1386" relative="1" as="geometry">
            <mxPoint y="1" as="offset" />
          </mxGeometry>
        </mxCell>
        <mxCell id="WUrqiauPszfEcTlT8KK8-9" value="&lt;font style=&quot;font-size: 14px;&quot;&gt;&amp;nbsp; &amp;nbsp;i 1 &amp;nbsp;&amp;nbsp;&lt;/font&gt;" style="edgeLabel;html=1;align=center;verticalAlign=middle;resizable=0;points=[];" parent="WUrqiauPszfEcTlT8KK8-2" vertex="1" connectable="0">
          <mxGeometry x="0.1509" relative="1" as="geometry">
            <mxPoint as="offset" />
          </mxGeometry>
        </mxCell>
        <mxCell id="b0rjAcDf9z5aJyuMgeFr-18" style="edgeStyle=orthogonalEdgeStyle;rounded=0;orthogonalLoop=1;jettySize=auto;html=1;" edge="1" parent="1" source="WUrqiauPszfEcTlT8KK8-4" target="b0rjAcDf9z5aJyuMgeFr-17">
          <mxGeometry relative="1" as="geometry" />
        </mxCell>
        <mxCell id="WUrqiauPszfEcTlT8KK8-4" value="IIC" style="rounded=0;whiteSpace=wrap;html=1;strokeWidth=3;" parent="1" vertex="1">
          <mxGeometry x="126" y="360" width="50" height="30" as="geometry" />
        </mxCell>
        <mxCell id="WUrqiauPszfEcTlT8KK8-5" value="MI of social interaction" style="rounded=0;whiteSpace=wrap;html=1;strokeWidth=3;" parent="1" vertex="1">
          <mxGeometry x="302" y="330" width="91" height="30" as="geometry" />
        </mxCell>
        <mxCell id="WUrqiauPszfEcTlT8KK8-6" value="MI of outgroup" style="rounded=0;whiteSpace=wrap;html=1;strokeWidth=3;" parent="1" vertex="1">
          <mxGeometry x="302" y="390" width="90" height="30" as="geometry" />
        </mxCell>
        <mxCell id="WUrqiauPszfEcTlT8KK8-11" style="rounded=0;orthogonalLoop=1;jettySize=auto;html=1;entryX=1;entryY=0.75;entryDx=0;entryDy=0;exitX=0.205;exitY=0.172;exitDx=0;exitDy=0;exitPerimeter=0;" parent="1" source="WUrqiauPszfEcTlT8KK8-10" target="WUrqiauPszfEcTlT8KK8-5" edge="1">
          <mxGeometry relative="1" as="geometry" />
        </mxCell>
        <mxCell id="WUrqiauPszfEcTlT8KK8-13" value="1" style="edgeLabel;html=1;align=center;verticalAlign=middle;resizable=0;points=[];" parent="WUrqiauPszfEcTlT8KK8-11" vertex="1" connectable="0">
          <mxGeometry x="-0.2764" relative="1" as="geometry">
            <mxPoint as="offset" />
          </mxGeometry>
        </mxCell>
        <mxCell id="WUrqiauPszfEcTlT8KK8-12" style="rounded=0;orthogonalLoop=1;jettySize=auto;html=1;exitX=0;exitY=0.75;exitDx=0;exitDy=0;entryX=1;entryY=0.5;entryDx=0;entryDy=0;" parent="1" source="WUrqiauPszfEcTlT8KK8-10" target="WUrqiauPszfEcTlT8KK8-6" edge="1">
          <mxGeometry relative="1" as="geometry" />
        </mxCell>
        <mxCell id="WUrqiauPszfEcTlT8KK8-14" value="1" style="edgeLabel;html=1;align=center;verticalAlign=middle;resizable=0;points=[];" parent="WUrqiauPszfEcTlT8KK8-12" vertex="1" connectable="0">
          <mxGeometry x="-0.1959" relative="1" as="geometry">
            <mxPoint as="offset" />
          </mxGeometry>
        </mxCell>
        <mxCell id="WUrqiauPszfEcTlT8KK8-10" value="IS" style="verticalLabelPosition=middle;verticalAlign=middle;html=1;shape=hexagon;perimeter=hexagonPerimeter2;arcSize=6;size=0.27;align=center;labelPosition=center;" parent="1" vertex="1">
          <mxGeometry x="412" y="360" width="46" height="30" as="geometry" />
        </mxCell>
        <mxCell id="b0rjAcDf9z5aJyuMgeFr-6" style="edgeStyle=orthogonalEdgeStyle;rounded=0;orthogonalLoop=1;jettySize=auto;html=1;" edge="1" parent="1" source="b0rjAcDf9z5aJyuMgeFr-1" target="b0rjAcDf9z5aJyuMgeFr-3">
          <mxGeometry relative="1" as="geometry" />
        </mxCell>
        <mxCell id="b0rjAcDf9z5aJyuMgeFr-15" style="edgeStyle=orthogonalEdgeStyle;rounded=0;orthogonalLoop=1;jettySize=auto;html=1;" edge="1" parent="1" source="b0rjAcDf9z5aJyuMgeFr-1" target="b0rjAcDf9z5aJyuMgeFr-11">
          <mxGeometry relative="1" as="geometry" />
        </mxCell>
        <mxCell id="b0rjAcDf9z5aJyuMgeFr-16" value="&amp;nbsp;c&amp;nbsp;" style="edgeLabel;html=1;align=center;verticalAlign=middle;resizable=0;points=[];" vertex="1" connectable="0" parent="b0rjAcDf9z5aJyuMgeFr-15">
          <mxGeometry x="-0.5975" y="1" relative="1" as="geometry">
            <mxPoint as="offset" />
          </mxGeometry>
        </mxCell>
        <mxCell id="b0rjAcDf9z5aJyuMgeFr-1" value="MI" style="rounded=0;whiteSpace=wrap;html=1;strokeWidth=3;" vertex="1" parent="1">
          <mxGeometry x="70" y="695" width="50" height="30" as="geometry" />
        </mxCell>
        <mxCell id="b0rjAcDf9z5aJyuMgeFr-2" value="&quot;TODO&quot;" style="rounded=0;whiteSpace=wrap;html=1;" vertex="1" parent="1">
          <mxGeometry x="300" y="660" width="140" height="40" as="geometry" />
        </mxCell>
        <mxCell id="b0rjAcDf9z5aJyuMgeFr-9" style="edgeStyle=orthogonalEdgeStyle;rounded=0;orthogonalLoop=1;jettySize=auto;html=1;" edge="1" parent="1" source="b0rjAcDf9z5aJyuMgeFr-3" target="b0rjAcDf9z5aJyuMgeFr-2">
          <mxGeometry relative="1" as="geometry" />
        </mxCell>
        <mxCell id="b0rjAcDf9z5aJyuMgeFr-10" value="&amp;nbsp;n&amp;nbsp;" style="edgeLabel;html=1;align=center;verticalAlign=middle;resizable=0;points=[];" vertex="1" connectable="0" parent="b0rjAcDf9z5aJyuMgeFr-9">
          <mxGeometry x="-0.1492" relative="1" as="geometry">
            <mxPoint as="offset" />
          </mxGeometry>
        </mxCell>
        <mxCell id="b0rjAcDf9z5aJyuMgeFr-3" value="EmoResp" style="rounded=0;whiteSpace=wrap;html=1;strokeWidth=3;" vertex="1" parent="1">
          <mxGeometry x="175" y="665" width="80" height="30" as="geometry" />
        </mxCell>
        <mxCell id="b0rjAcDf9z5aJyuMgeFr-8" value="&lt;span style=&quot;color: rgb(0, 0, 0); font-family: Helvetica; font-size: 12px; font-style: normal; font-variant-ligatures: normal; font-variant-caps: normal; font-weight: 400; letter-spacing: normal; orphans: 2; text-align: center; text-indent: 0px; text-transform: none; widows: 2; word-spacing: 0px; -webkit-text-stroke-width: 0px; background-color: rgb(251, 251, 251); text-decoration-thickness: initial; text-decoration-style: initial; text-decoration-color: initial; float: none; display: inline !important;&quot;&gt;&quot;MI causes emotional responses similar to those of real experiences&quot; (Crisp &amp;amp; Turner, 2009, p. 233)&lt;/span&gt;" style="text;whiteSpace=wrap;html=1;" vertex="1" parent="1">
          <mxGeometry x="500" y="675" width="220" height="50" as="geometry" />
        </mxCell>
        <mxCell id="b0rjAcDf9z5aJyuMgeFr-13" style="edgeStyle=orthogonalEdgeStyle;rounded=0;orthogonalLoop=1;jettySize=auto;html=1;" edge="1" parent="1" source="b0rjAcDf9z5aJyuMgeFr-11" target="b0rjAcDf9z5aJyuMgeFr-12">
          <mxGeometry relative="1" as="geometry" />
        </mxCell>
        <mxCell id="b0rjAcDf9z5aJyuMgeFr-14" value="&amp;nbsp;n&amp;nbsp;" style="edgeLabel;html=1;align=center;verticalAlign=middle;resizable=0;points=[];" vertex="1" connectable="0" parent="b0rjAcDf9z5aJyuMgeFr-13">
          <mxGeometry x="-0.0222" relative="1" as="geometry">
            <mxPoint as="offset" />
          </mxGeometry>
        </mxCell>
        <mxCell id="b0rjAcDf9z5aJyuMgeFr-11" value="MotResp" style="rounded=0;whiteSpace=wrap;html=1;strokeWidth=3;" vertex="1" parent="1">
          <mxGeometry x="175" y="715" width="80" height="30" as="geometry" />
        </mxCell>
        <mxCell id="b0rjAcDf9z5aJyuMgeFr-12" value="&quot;TODO&quot;" style="rounded=0;whiteSpace=wrap;html=1;" vertex="1" parent="1">
          <mxGeometry x="300" y="710" width="140" height="40" as="geometry" />
        </mxCell>
        <mxCell id="b0rjAcDf9z5aJyuMgeFr-17" value="MI" style="rounded=0;whiteSpace=wrap;html=1;strokeWidth=3;" vertex="1" parent="1">
          <mxGeometry x="126" y="420" width="50" height="30" as="geometry" />
        </mxCell>
        <mxCell id="b0rjAcDf9z5aJyuMgeFr-19" value="i" style="text;html=1;align=center;verticalAlign=middle;resizable=0;points=[];autosize=1;strokeColor=none;fillColor=none;" vertex="1" parent="1">
          <mxGeometry x="142" y="388" width="30" height="30" as="geometry" />
        </mxCell>
      </root>
    </mxGraphModel>
  </diagram>
</mxfile>
